# xmcd
#
# Track frame offsets:
#	150
#	17848
#	35133
#	54330
#	71385
#	90858
#	110825
#	132508
#	161078
#	177293
#	190390
#	207895
#
# Disc length: 3069 seconds
#
# Revision: 0
# Processed by: cddbd v1.5.2PL0 Copyright (c) Steve Scherf et al.
# Submitted via: EasyCDDAExtractor 16.0.9.1
#
DISCID=a70bfb0c
DTITLE=Celeste Carballo - Me vuelvo cada día mas loca
DYEAR=2016
DGENRE=
TTITLE0=Me vuelvo cada día mas loca
TTITLE1=Blues del Veraneo
TTITLE2=Que suerte que viniste
TTITLE3=Querido coronel pringles
TTITLE4=Es la vida que me alcanza
TTITLE5=Debajo del aguaribay
TTITLE6=Alfonsina volve a nacer
TTITLE7=Desconfio
TTITLE8=Amanecer de un dia Garcia
TTITLE9=Hermano sol
TTITLE10=A cada paso
TTITLE11=Por amor al blues
EXTD=
EXTT0=
EXTT1=
EXTT2=
EXTT3=
EXTT4=
EXTT5=
EXTT6=
EXTT7=
EXTT8=
EXTT9=
EXTT10=
EXTT11=
PLAYORDER=
